<?xml version="1.0" encoding="utf-8" ?><svg xmlns="http://www.w3.org/2000/svg" xmlns:xlink="http://www.w3.org/1999/xlink" width="2048" height="2048" viewBox="0 0 2048 2048"><path fill="#06D3D0" d="M833.333 807.325C951.663 703.077 1131.82 713.363 1237.52 830.401C1343.22 947.439 1335.15 1127.71 1219.42 1234.84C1103.69 1341.97 923.33 1336.12 814.787 1221.72C706.243 1107.31 709.874 926.897 822.932 816.954C826.32 813.659 829.788 810.449 833.333 807.325Z"/><path fill="#06D3D0" d="M529.369 623.89C535.682 626.231 643.867 737.439 655.829 749.677L487.134 917.908C476.851 928.202 385.018 1018.37 383.641 1023.66C388.991 1033.6 434.871 1077.15 446.081 1088.25L579.286 1221.62L628.055 1269.87C635.979 1277.74 646.728 1287.78 653.709 1295.99L654.477 1296.91C638.395 1310.7 624.128 1325.88 609.278 1340.92L555.983 1394.54C547.19 1403.45 537.268 1414.44 528.166 1422.54C517.142 1412.51 503.618 1397.76 492.947 1386.91L429.003 1322.65L128.149 1022.63C164.098 986.469 200.307 950.571 236.772 914.934L395.81 756.843L482.589 669.04C493.789 657.75 517.353 632.918 529.369 623.89Z"/><path fill="#06D3D0" d="M1518.77 623.74C1522.41 624.925 1546.21 649.871 1550.66 654.287C1578.45 681.691 1605.99 709.347 1633.27 737.252C1702.23 806.917 1771.59 876.183 1841.35 945.045C1850.39 954.097 1918.44 1020.37 1918.82 1023.87C1914.45 1030.05 1887.44 1055.77 1880.41 1062.72L1792.47 1149.83L1522.61 1420.35C1521.8 1421.34 1521.56 1421.26 1520.35 1421.94C1517.29 1420.26 1511.44 1413.75 1508.7 1410.92C1471.27 1372.08 1430.76 1335.44 1394.35 1295.7C1456.23 1231.33 1525.06 1164.03 1588.71 1100.82C1604.41 1085.26 1620.18 1069.78 1636.04 1054.39C1644.14 1046.5 1660.05 1031.66 1666.08 1023.01C1660.49 1015.09 1646.48 1001.72 1639.05 994.307L1587.47 943.281L1392.27 749.045C1420.87 718.969 1451.93 690.668 1480.74 660.727C1493.05 647.936 1505.21 635.213 1518.77 623.74Z"/><path fill="#06D3D0" d="M1288.75 1401.54C1307.34 1416.77 1335.55 1448.04 1353.55 1465.85C1369.3 1481.43 1401.39 1511.31 1414.39 1527.62C1404.11 1539.93 1379.8 1562.34 1367.8 1574.45C1341.81 1600.69 1315.13 1627.25 1288.64 1652.97L1116.57 1825.09C1086.98 1855.08 1054.19 1890.86 1023.96 1919.29C936.068 1829.38 847.405 1740.23 757.979 1651.85L681.791 1575.71C669.43 1563.59 643.181 1539.38 633.273 1527.3C641.334 1517.64 652.494 1506.65 661.672 1497.92C694.238 1466.95 724.89 1431.63 758.181 1401.72C764.921 1405.26 805.134 1447.14 813.304 1455.55C857.923 1501.49 904.19 1546.03 949.134 1591.53L996.513 1639.97C1004.44 1647.98 1015.94 1660.2 1024.77 1666.65C1030.94 1661.21 1039.59 1651.57 1045.58 1645.37C1057.41 1633.15 1069.32 1620.99 1081.29 1608.9L1223.04 1467.54C1241.98 1448.69 1270.2 1417.58 1288.75 1401.54Z"/><path fill="#06D3D0" d="M1023.3 126.674C1028.12 128.995 1139.71 243.278 1151.99 255.587L1283.62 386.893C1326.24 428.764 1372.79 473.333 1412.91 517.238C1404.58 524.207 1393.5 537.081 1384.81 545.236C1351.65 576.353 1320.29 611.395 1286.74 641.879C1264.08 622.315 1236.63 592.396 1215 570.555L1090.62 445.768C1074.64 429.726 1040.42 393.279 1024.12 380.562C1019.65 381.762 997.319 405.691 992.392 410.684L936.698 467.019L761.184 642.503C746.968 630.342 717.886 599.459 703.891 585.09C685.129 565.828 650.78 534.586 635.522 515.181C643.314 505.221 665.955 484.153 676.139 474.112L755.863 395.264C845.524 306.248 934.672 216.716 1023.3 126.674Z"/></svg>